<svg xmlns="http://www.w3.org/2000/svg" width="72" height="72" viewBox="0 0 200 200" fill="none">
  <defs>
    <radialGradient id="w4-bg" cx="38%" cy="32%" r="76%">
      <stop offset="0%" stop-color="#163E5C"/>
      <stop offset="55%" stop-color="#0B2238"/>
      <stop offset="100%" stop-color="#061018"/>
    </radialGradient>
    <linearGradient id="w4-line" x1="18" y1="40" x2="168" y2="168" gradientUnits="userSpaceOnUse">
      <stop stop-color="#A5F3FC"/>
      <stop offset="0.5" stop-color="#38BDF8"/>
      <stop offset="1" stop-color="#2563EB"/>
    </linearGradient>
    <linearGradient id="w4-letter" x1="80" y1="82" x2="170" y2="136" gradientUnits="userSpaceOnUse">
      <stop stop-color="#E8FAFF"/>
      <stop offset="1" stop-color="#7DD3FC"/>
    </linearGradient>
    <filter id="w4-glow" x="-55%" y="-55%" width="210%" height="210%">
      <feGaussianBlur stdDeviation="1.8" result="b"/>
      <feMerge>
        <feMergeNode in="b"/>
        <feMergeNode in="SourceGraphic"/>
      </feMerge>
    </filter>
    <filter id="w4-letter-glow" x="-18%" y="-18%" width="136%" height="136%">
      <feGaussianBlur in="SourceGraphic" stdDeviation="1.05" result="b"/>
      <feColorMatrix in="b" type="matrix" values="0 0 0 0 0.5  0 0 0 0 0.9  0 0 0 0 1  0 0 0 0.75 0"/>
      <feMerge>
        <feMergeNode/>
        <feMergeNode in="SourceGraphic"/>
      </feMerge>
    </filter>
    <clipPath id="w4-clip">
      <circle cx="100" cy="100" r="100"/>
    </clipPath>
  </defs>
  <circle cx="100" cy="100" r="100" fill="url(#w4-bg)"/>
  <g clip-path="url(#w4-clip)">
    <g filter="url(#w4-glow)" stroke="url(#w4-line)" stroke-width="2.5" stroke-linecap="round" stroke-linejoin="round" fill="none">
      <path d="M22 102 L56 100"/>
      <path d="M22 102 L36 56"/>
      <path d="M22 102 L34 146"/>
      <path d="M22 102 L30 28"/>
      <path d="M56 100 L36 56"/>
      <path d="M56 100 L96 22"/>
      <path d="M56 100 L70 160"/>
      <path d="M56 100 L34 146"/>
      <path d="M36 56 L30 28"/>
      <path d="M36 56 L66 24"/>
      <path d="M30 28 L66 24"/>
      <path d="M66 24 L96 22"/>
      <path d="M96 22 L126 26"/>
      <path d="M126 26 L152 44"/>
      <path d="M152 44 L156 78"/>
      <path d="M96 22 L152 44"/>
      <path d="M126 26 L156 78"/>
      <path d="M66 24 L126 26"/>
      <path d="M22 102 L28 170"/>
      <path d="M34 146 L28 170"/>
      <path d="M34 146 L70 160"/>
      <path d="M70 160 L162 138"/>
      <path d="M34 146 L162 138"/>
    </g>
    <g filter="url(#w4-glow)">
      <circle cx="22" cy="102" r="7.6" fill="#7DD3FC"/>
      <circle cx="56" cy="100" r="5.0" fill="#67E8F9"/>
      <circle cx="156" cy="78" r="5.0" fill="#38BDF8"/>
      <circle cx="162" cy="138" r="7.6" fill="#2563EB"/>
      <g fill="none" stroke="url(#w4-line)" stroke-width="2.1">
        <circle cx="36" cy="56" r="3.9"/>
        <circle cx="30" cy="28" r="3.9"/>
        <circle cx="66" cy="24" r="3.9"/>
        <circle cx="96" cy="22" r="3.9"/>
        <circle cx="126" cy="26" r="3.9"/>
        <circle cx="152" cy="44" r="3.9"/>
        <circle cx="34" cy="146" r="3.9"/>
        <circle cx="28" cy="170" r="3.9"/>
        <circle cx="70" cy="160" r="3.9"/>
      </g>
    </g>
    <g filter="url(#w4-letter-glow)" fill="url(#w4-letter)" transform="translate(10 0)">
      <path d="M111.27 85.39V94.95Q104.28 89.10 96.80 89.10Q88.55 89.10 82.91 95.02Q77.23 100.91 77.23 109.43Q77.23 117.85 82.91 123.63Q88.59 129.42 96.83 129.42Q101.09 129.42 104.07 128.03Q105.73 127.34 107.52 126.16Q109.30 124.99 111.27 123.32V133.06Q104.35 136.97 96.73 136.97Q85.26 136.97 77.16 128.97Q69.09 120.90 69.09 109.50Q69.09 99.28 75.84 91.28Q84.15 81.48 97.35 81.48Q104.55 81.48 111.27 85.39Z"/>
      <path d="M146.16 108.15H168.26V109.92Q168.26 115.94 166.84 120.59Q165.45 124.88 162.16 128.62Q154.72 137.00 143.22 137.00Q131.99 137.00 123.99 128.90Q115.99 120.76 115.99 109.36Q115.99 97.73 124.13 89.62Q132.27 81.48 143.94 81.48Q150.21 81.48 155.65 84.04Q160.85 86.61 165.87 92.36L160.12 97.86Q153.54 89.10 144.08 89.10Q135.60 89.10 129.85 94.95Q124.10 100.70 124.10 109.36Q124.10 118.30 130.50 124.08Q136.50 129.45 143.49 129.45Q149.45 129.45 154.20 125.44Q158.94 121.38 159.50 115.74H146.16Z"/>
    </g>
  </g>
</svg>
